<svg xmlns="http://www.w3.org/2000/svg" viewBox="0 0 256 256"><defs><style>.a{fill:#226087;}.b{fill:#4e809f;}.c{fill:#035946;}.d{fill:#dcad79;}.e{fill:#e3bd94;}.f{fill:#a86638;}.g{fill:#b98560;}.h{fill:#151515;}.i{fill:#1e6550;}</style></defs><title>defaultavatar</title><path class="a" d="M219.09,168.31h0l-58.67-22c-6.6,5.29-18.81,9.61-32.42,9.61V239.6H239C231.78,187.1,219.09,168.31,219.09,168.31Z"/><path class="b" d="M36.91,168.31h0l58.67-22c6.6,5.29,18.81,9.61,32.42,9.61V239.6H17C24.22,187.1,36.91,168.31,36.91,168.31Z"/><path class="c" d="M157.5,137.87s-13.85,45.43-20.39,60.52,6.33,12.94,12.1,23.34,17.88,12.61,24.7,5.51,14.81,0,19.69-8S172.85,94.48,167,80.08s-11.24-29-16-22.4S157.5,137.87,157.5,137.87Z"/><path class="d" d="M128,143.91s6.25,1,11.36-1.68c7.27-3.82,25.22-14,25.22-22V46.63L128,43.32Z"/><path class="d" d="M161.67,77.18s6.31-8.11,9.86-1.49c2.79,5.2.32,18.15-3.06,26.06-1.83,4.29-7.16,3.39-7.16,3.39Z"/><path class="e" d="M94.33,77.18S88,69.07,84.47,75.69c-2.79,5.2-.32,18.15,3.06,26.06,1.83,4.29,7.16,3.39,7.16,3.39Z"/><path class="e" d="M128,143.91s-6.25,1-11.36-1.68c-7.27-3.82-25.22-14-25.22-22V44.88L128,40.45Z"/><path class="f" d="M130.4,104.23c1-1.68,4.14-5.62,6.47-2.79S128.57,107.35,130.4,104.23Z"/><path class="g" d="M125.6,104.23c-1-1.68-4.14-5.62-6.47-2.79S127.43,107.35,125.6,104.23Z"/><path class="h" d="M144.32,72.07c14.38,1.45,13.56,8.62,13.56,8.62-6.2-5.57-16.4-4.59-21.75-5-4.62-.34-2.78-4.79-2.18-6C134,70.18,135.37,71.17,144.32,72.07Z"/><path class="h" d="M111.68,72.07c-14.38,1.45-13.56,8.62-13.56,8.62,6.2-5.57,16.4-4.59,21.75-5,4.62-.34,2.78-4.79,2.18-6C122,70.17,120.63,71.17,111.68,72.07Z"/><path class="f" d="M133.59,116.12c-4.24-1-4.39.56-5.69,1.27v8.53c.63,0,6.44,0,7,0,7.6,0,8.36-7.4,8.36-7.4S137.77,117.11,133.59,116.12Z"/><path class="g" d="M122.2,116.12c4.24-1,4.39.56,5.7,1.27v8.53c-.63,0-6.45,0-7,0-7.6,0-8.36-7.4-8.36-7.4S118,117.11,122.2,116.12Z"/><path class="h" d="M127.9,129S94.44,141.16,94.44,60.34H91.2s-.1,59.45-.1,75.13c0,0,5.21,34.5,36.8,34.5Z"/><path class="h" d="M127.9,129s33.46,12.14,33.46-68.68h3.24s.1,59.45.1,75.13c0,0-5.21,34.5-36.8,34.5Z"/><path class="c" d="M170.63,39.7c-13.15-19.39-30.74-23.3-42.73-23.3S98.32,20.31,85.17,39.7c-6.32,9.32,1,30.9,6,34.54,0,0,4.9-11.46,36.72-11.46s36.73,11.66,36.73,11.66C169.67,70.79,177,49,170.63,39.7Z"/><path class="i" d="M89.23,49.21s12-17.94,38.77-17.94,33.31,5,33.31,5S139.46,35.07,128,37C102.6,41.4,89.23,49.21,89.23,49.21Z"/><path class="i" d="M116.81,47.47s17.9-8.28,40.69-1.63Z"/><path class="h" d="M110.32,132s-2.09-14.29,1.46-16.87S128,114.5,128,114.5l-.1-4.29s-9.55-6.24-16.57-2.68c-10.5,5.34-7.84,23.54-7.84,23.54Z"/><path class="h" d="M145.47,131.07s2.1-13.33-1.45-15.91-16.22-.66-16.22-.66l.1-4.29s9.55-6.24,16.56-2.68c10.51,5.34,7.84,23.54,7.84,23.54Z"/></svg>